# xmcd
#
# Track frame offsets:
#	182
#	13622
#	27392
#	41427
#	56870
#	71787
#	86700
#	98305
#	110250
#	128465
#	141945
#	155542
#	169097
#	183025
#	197155
#	210827
#	222242
#	238715
#	260380
#	277220
#	296635
#	310007
#	321450
#	333887
#
# Disc length: 4671 seconds
#
# Revision: 1
# Processed by: cddbd v1.4b41PL1 Copyright (c) Steve Scherf et al.
# Submitted via: audiograbber 1.80
#
DISCID=5a123d18
DTITLE=Salvatore Adamo - 24 Grandes Exitos en Español
DYEAR=1900
DGENRE=
TTITLE0=Mis manos en tu cintura
TTITLE1=Mi gran noche
TTITLE2=Quiero
TTITLE3=Pequeña felicidad
TTITLE4=Nuestra novela
TTITLE5=La noche
TTITLE6=Tu nombre
TTITLE7=Porque yo quiero
TTITLE8=Marie la mer
TTITLE9=El anuncio
TTITLE10=Yo te ofrezco
TTITLE11=El tiempo se detiene
TTITLE12=Un mechón de tus cabellos
TTITLE13=Arroyo de mi infancia
TTITLE14=Ella
TTITLE15=Vivir
TTITLE16=Era una linda flor
TTITLE17=Inch'allah
TTITLE18=En bandolera
TTITLE19=Es mi vida
TTITLE20=Una lágrima en las nubes
TTITLE21=Como las rosas
TTITLE22=Nada que hacer
TTITLE23=Mañana en la luna
EXTD=1993 EMI Odeon Chilena S. A. (Chile]\n\n(P) 1991 Compilado EMI Belgium N. 
EXTD=V.\n\nEMI 7 243828236 4
EXTT0=
EXTT1=
EXTT2=
EXTT3=
EXTT4=
EXTT5=
EXTT6=
EXTT7=
EXTT8=
EXTT9=
EXTT10=
EXTT11=
EXTT12=
EXTT13=
EXTT14=
EXTT15=
EXTT16=
EXTT17=
EXTT18=
EXTT19=
EXTT20=
EXTT21=
EXTT22=
EXTT23=
PLAYORDER=
